# xmcd
#
# Track frame offsets:
#	150
#	14264
#	28594
#	41948
#	55795
#	67758
#	79999
#	96416
#	106066
#	123029
#	136808
#	151309
#	168195
#	183558
#	198903
#	211699
#	227455
#	243154
#	259188
#	273555
#	286572
#	303104
#	324647
#
# Disc length: 4555 seconds
#
# Revision: 1
# Processed by: cddbd v1.5.2PL0 Copyright (c) Steve Scherf et al.
# Submitted via: audiograbber 1.83.01
#
DISCID=2811c917
DTITLE=Ready Records - Waves Of Golry 3
DYEAR=1900
DGENRE=
TTITLE0=Jim Waters - Scars Upon His Heart
TTITLE1=Marvin Morrow - My Homes A Sight To See
TTITLE2=Ernie Ashworth - My Tribute To God
TTITLE3=Evelyn Conner - Chain Gang
TTITLE4=Morgan and Morgan - Lord, When I Make It To Heaven
TTITLE5=Jim Wilkerson - Calling You
TTITLE6=Bill Townsend - White Horses With Wings
TTITLE7=Marvell - I'm Not Controversial
TTITLE8=Pat Cole - On My Knees For You
TTITLE9=Brooks Ann Cole - Prayer
TTITLE10=The Pearcys - Hes Coming Back
TTITLE11=The Pearcys - Your World
TTITLE12=Bill Townsend - The Thin Blue Line
TTITLE13=Andrew Dean - Grandma's Piano Bench
TTITLE14=Andrew Dean - As Great As He Wants Me To Be
TTITLE15=Gladys Jones - Is Anybody Out There
TTITLE16=Linda Hodge - Jesus Paint My Heart
TTITLE17=Lin Baker - Rolling On For You
TTITLE18=Holy City - Just After
TTITLE19=Amber Morgan - Hero In White
TTITLE20=Micheal Towns - Consider The Lilies
TTITLE21=Annette Johnson - Old Soldier
TTITLE22=Anne Murphy - Amazing Grace
EXTD=
EXTT0=
EXTT1=
EXTT2=
EXTT3=
EXTT4=
EXTT5=
EXTT6=
EXTT7=
EXTT8=
EXTT9=
EXTT10=
EXTT11=
EXTT12=
EXTT13=
EXTT14=
EXTT15=
EXTT16=
EXTT17=
EXTT18=
EXTT19=
EXTT20=
EXTT21=
EXTT22=
PLAYORDER=
